<?xml version="1.0" ?><svg height="50px" id="Слой_1" style="enable-background:new 0 0 50 50;" version="1.1" viewBox="0 0 50 50" width="50px" xml:space="preserve" xmlns="http://www.w3.org/2000/svg" xmlns:xlink="http://www.w3.org/1999/xlink"><style type="text/css">
	.st0{fill:#374163;}
</style><g><path class="st0" d="M20.47097,41.03725c-5.49068,0-10.63427-2.12316-14.48919-5.98177C2.12316,31.20055,0,26.05512,0,20.56629   C0,15.0793,2.12316,9.93571,5.97439,6.07894c3.85492-3.91031,9.0022-6.06486,14.49288-6.06486c0,0,0,0,0.00369,0   c5.49437,0,10.64534,2.15639,14.50396,6.07224c3.89185,3.83461,6.04824,8.98559,6.04824,14.48181   c0,5.49437-2.15639,10.6435-6.07409,14.50027C31.10523,38.91409,25.95795,41.03725,20.47097,41.03725z M20.46727,4.62227   C16.21726,4.62412,12.2331,6.29126,9.25329,9.32092C9.2496,9.32461,9.24221,9.3283,9.23852,9.33384   c-2.9872,2.98535-4.63034,6.97505-4.63034,11.23245s1.64314,8.24525,4.63034,11.2306   c2.9872,2.9872,6.97505,4.63218,11.23245,4.63218s8.24525-1.64499,11.23244-4.63218   c3.04258-2.99643,4.71157-6.97874,4.71157-11.2306c0-4.25002-1.66899-8.23602-4.70049-11.22137   C28.70514,6.29126,24.71729,4.62227,20.46727,4.62227z"/><path class="st0" d="M47.69543,49.98591c-0.5871,0-1.1742-0.22155-1.62468-0.66833L31.7071,35.06286   c-0.90096-0.89726-0.90834-2.35579-0.01108-3.25859c0.89727-0.90465,2.35579-0.91019,3.26044-0.01292l14.36365,14.25472   c0.90096,0.89727,0.90834,2.35579,0.01108,3.25859C48.88071,49.75883,48.28622,49.98591,47.69543,49.98591z"/></g></svg>